# Blender 3.1.0
# www.blender.org
mtllib untitled.mtl
o Cube
v 0.061267 0.543993 -1.000000
v 0.061267 0.729963 -0.745233
v 0.061267 0.564599 -0.999781
v 0.061267 0.585185 -0.998521
v 0.061267 0.605671 -0.995468
v 0.061267 0.625877 -0.989932
v 0.061267 0.645491 -0.981274
v 0.061267 0.664036 -0.968968
v 0.061267 0.680905 -0.952755
v 0.061267 0.695476 -0.932794
v 0.061267 0.707311 -0.909684
v 0.061267 0.716294 -0.884278
v 0.061267 0.722614 -0.857409
v 0.061267 0.726655 -0.829727
v 0.061267 0.728884 -0.801664
v 0.061267 0.729803 -0.773462
v 0.061267 -0.729963 -0.745233
v 0.061267 -0.543993 -1.000000
v 0.061267 -0.729803 -0.773462
v 0.061267 -0.728884 -0.801664
v 0.061267 -0.726655 -0.829727
v 0.061267 -0.722614 -0.857409
v 0.061267 -0.716294 -0.884278
v 0.061267 -0.707311 -0.909684
v 0.061267 -0.695476 -0.932794
v 0.061267 -0.680905 -0.952755
v 0.061267 -0.664036 -0.968968
v 0.061267 -0.645491 -0.981274
v 0.061267 -0.625877 -0.989932
v 0.061267 -0.605671 -0.995468
v 0.061267 -0.585185 -0.998521
v 0.061267 -0.564599 -0.999781
v 0.061267 0.729963 0.745233
v 0.061267 0.543993 1.000000
v 0.061267 0.729803 0.773462
v 0.061267 0.728884 0.801664
v 0.061267 0.726655 0.829727
v 0.061267 0.722614 0.857409
v 0.061267 0.716294 0.884278
v 0.061267 0.707311 0.909684
v 0.061267 0.695476 0.932794
v 0.061267 0.680905 0.952755
v 0.061267 0.664036 0.968968
v 0.061267 0.645491 0.981274
v 0.061267 0.625877 0.989932
v 0.061267 0.605671 0.995468
v 0.061267 0.585185 0.998521
v 0.061267 0.564599 0.999781
v 0.061267 -0.543993 1.000000
v 0.061267 -0.729963 0.745233
v 0.061267 -0.564599 0.999781
v 0.061267 -0.585185 0.998521
v 0.061267 -0.605671 0.995468
v 0.061267 -0.625877 0.989932
v 0.061267 -0.645491 0.981274
v 0.061267 -0.664036 0.968968
v 0.061267 -0.680905 0.952755
v 0.061267 -0.695476 0.932794
v 0.061267 -0.707311 0.909684
v 0.061267 -0.716294 0.884278
v 0.061267 -0.722614 0.857409
v 0.061267 -0.726655 0.829727
v 0.061267 -0.728884 0.801664
v 0.061267 -0.729803 0.773462
v -0.061267 0.729963 -0.745233
v -0.061267 0.543993 -1.000000
v -0.061267 0.729803 -0.773462
v -0.061267 0.728884 -0.801664
v -0.061267 0.726655 -0.829727
v -0.061267 0.722614 -0.857409
v -0.061267 0.716294 -0.884278
v -0.061267 0.707311 -0.909684
v -0.061267 0.695476 -0.932794
v -0.061267 0.680905 -0.952755
v -0.061267 0.664036 -0.968968
v -0.061267 0.645491 -0.981274
v -0.061267 0.625877 -0.989932
v -0.061267 0.605671 -0.995468
v -0.061267 0.585185 -0.998521
v -0.061267 0.564599 -0.999781
v -0.061267 -0.543993 -1.000000
v -0.061267 -0.729963 -0.745233
v -0.061267 -0.564599 -0.999781
v -0.061267 -0.585185 -0.998521
v -0.061267 -0.605671 -0.995468
v -0.061267 -0.625877 -0.989932
v -0.061267 -0.645491 -0.981274
v -0.061267 -0.664036 -0.968968
v -0.061267 -0.680905 -0.952755
v -0.061267 -0.695476 -0.932794
v -0.061267 -0.707311 -0.909684
v -0.061267 -0.716294 -0.884278
v -0.061267 -0.722614 -0.857409
v -0.061267 -0.726655 -0.829727
v -0.061267 -0.728884 -0.801664
v -0.061267 -0.729803 -0.773462
v -0.061267 0.543993 1.000000
v -0.061267 0.729963 0.745233
v -0.061267 0.564599 0.999781
v -0.061267 0.585185 0.998521
v -0.061267 0.605671 0.995468
v -0.061267 0.625877 0.989932
v -0.061267 0.645491 0.981274
v -0.061267 0.664036 0.968968
v -0.061267 0.680905 0.952755
v -0.061267 0.695476 0.932794
v -0.061267 0.707311 0.909684
v -0.061267 0.716294 0.884278
v -0.061267 0.722614 0.857409
v -0.061267 0.726655 0.829727
v -0.061267 0.728884 0.801664
v -0.061267 0.729803 0.773462
v -0.061267 -0.729963 0.745233
v -0.061267 -0.543993 1.000000
v -0.061267 -0.729803 0.773462
v -0.061267 -0.728884 0.801664
v -0.061267 -0.726655 0.829727
v -0.061267 -0.722614 0.857409
v -0.061267 -0.716294 0.884278
v -0.061267 -0.707311 0.909684
v -0.061267 -0.695476 0.932794
v -0.061267 -0.680905 0.952755
v -0.061267 -0.664036 0.968968
v -0.061267 -0.645491 0.981274
v -0.061267 -0.625877 0.989932
v -0.061267 -0.605671 0.995468
v -0.061267 -0.585185 0.998521
v -0.061267 -0.564599 0.999781
vn -0.0000 -0.7300 -0.0000
vn -0.0613 -0.0000 -0.0000
vn -0.0000 -0.0000 1.0000
vn -0.0000 0.7300 -0.0000
vn 0.0613 -0.0000 -0.0000
vn -0.0000 -0.7299 -0.0078
vn -0.0000 -0.7292 -0.0446
vn -0.0000 -0.7257 -0.1082
vn -0.0000 -0.7158 -0.1961
vn -0.0000 -0.6948 -0.3067
vn -0.0000 -0.6570 -0.4359
vn -0.0000 -0.5976 -0.5743
vn -0.0000 -0.5162 -0.7071
vn -0.0000 -0.4192 -0.8186
vn -0.0000 -0.3182 -0.9000
vn -0.0000 -0.2239 -0.9518
vn -0.0000 -0.1431 -0.9806
vn -0.0000 -0.0790 -0.9941
vn -0.0000 -0.0326 -0.9990
vn -0.0000 -0.0057 -1.0000
vn -0.0000 0.7299 0.0078
vn -0.0000 0.7292 0.0446
vn -0.0000 0.7257 0.1082
vn -0.0000 0.7158 0.1961
vn -0.0000 0.6948 0.3067
vn -0.0000 0.6570 0.4359
vn -0.0000 0.5976 0.5743
vn -0.0000 0.5162 0.7071
vn -0.0000 0.4192 0.8186
vn -0.0000 0.3182 0.9000
vn -0.0000 0.2239 0.9518
vn -0.0000 0.1431 0.9806
vn -0.0000 0.0790 0.9941
vn -0.0000 0.0326 0.9990
vn -0.0000 0.0057 1.0000
vn -0.0000 -0.7299 0.0078
vn -0.0000 -0.7292 0.0446
vn -0.0000 -0.7257 0.1082
vn -0.0000 -0.7158 0.1961
vn -0.0000 -0.6948 0.3067
vn -0.0000 -0.6570 0.4359
vn -0.0000 -0.5976 0.5743
vn -0.0000 -0.5162 0.7071
vn -0.0000 -0.4192 0.8186
vn -0.0000 -0.3182 0.9000
vn -0.0000 -0.2239 0.9518
vn -0.0000 -0.1431 0.9806
vn -0.0000 -0.0790 0.9941
vn -0.0000 -0.0326 0.9990
vn -0.0000 -0.0057 1.0000
vn -0.0000 0.7299 -0.0078
vn -0.0000 0.7292 -0.0446
vn -0.0000 0.7257 -0.1082
vn -0.0000 0.7158 -0.1961
vn -0.0000 0.6948 -0.3067
vn -0.0000 0.6570 -0.4359
vn -0.0000 0.5976 -0.5743
vn -0.0000 0.5162 -0.7071
vn -0.0000 0.4192 -0.8186
vn -0.0000 0.3182 -0.9000
vn -0.0000 0.2239 -0.9518
vn -0.0000 0.1431 -0.9806
vn -0.0000 0.0790 -0.9941
vn -0.0000 0.0326 -0.9990
vn -0.0000 0.0057 -1.0000
vn -0.0000 -0.0000 -1.0000
vt 0.593154 0.500000
vt 0.625000 0.531846
vt 0.596683 0.500000
vt 0.600208 0.500185
vt 0.600208 0.500000
vt 0.603716 0.500567
vt 0.603716 0.500000
vt 0.607176 0.501258
vt 0.607176 0.500000
vt 0.610535 0.502341
vt 0.610535 0.500000
vt 0.613711 0.503879
vt 0.613711 0.500000
vt 0.616599 0.505906
vt 0.616599 0.500000
vt 0.619094 0.508401
vt 0.625000 0.508401
vt 0.625000 0.500000
vt 0.621121 0.511289
vt 0.625000 0.511289
vt 0.622659 0.514465
vt 0.625000 0.514465
vt 0.623741 0.517824
vt 0.625000 0.517824
vt 0.624433 0.521284
vt 0.625000 0.521284
vt 0.624815 0.524792
vt 0.625000 0.524792
vt 0.625000 0.528317
vt 0.375000 0.531846
vt 0.406846 0.500000
vt 0.375000 0.528317
vt 0.375185 0.524792
vt 0.375000 0.524792
vt 0.375567 0.521284
vt 0.375000 0.521284
vt 0.376258 0.517824
vt 0.375000 0.517824
vt 0.377341 0.514465
vt 0.375000 0.514465
vt 0.378879 0.511289
vt 0.375000 0.511289
vt 0.380906 0.508401
vt 0.375000 0.508401
vt 0.383401 0.505906
vt 0.375000 0.500000
vt 0.383401 0.500000
vt 0.386290 0.503879
vt 0.386289 0.500000
vt 0.389465 0.502341
vt 0.389465 0.500000
vt 0.392824 0.501258
vt 0.392824 0.500000
vt 0.396284 0.500567
vt 0.396284 0.500000
vt 0.399792 0.500185
vt 0.399792 0.500000
vt 0.403317 0.500000
vt 0.625000 0.718154
vt 0.593154 0.750000
vt 0.625000 0.721683
vt 0.624815 0.725208
vt 0.625000 0.725208
vt 0.624433 0.728716
vt 0.625000 0.728716
vt 0.623741 0.732176
vt 0.625000 0.732176
vt 0.622659 0.735535
vt 0.625000 0.735535
vt 0.621121 0.738711
vt 0.625000 0.738711
vt 0.619094 0.741599
vt 0.625000 0.741599
vt 0.625000 0.750000
vt 0.616599 0.744094
vt 0.616599 0.750000
vt 0.613710 0.746121
vt 0.613711 0.750000
vt 0.610535 0.747659
vt 0.610535 0.750000
vt 0.607176 0.748742
vt 0.607176 0.750000
vt 0.603716 0.749433
vt 0.603716 0.750000
vt 0.600208 0.749815
vt 0.600208 0.750000
vt 0.596683 0.750000
vt 0.406846 0.750000
vt 0.375000 0.718154
vt 0.403317 0.750000
vt 0.399792 0.749815
vt 0.399792 0.750000
vt 0.396284 0.749433
vt 0.396284 0.750000
vt 0.392824 0.748741
vt 0.392824 0.750000
vt 0.389465 0.747659
vt 0.389465 0.750000
vt 0.386289 0.746121
vt 0.386289 0.750000
vt 0.383401 0.744094
vt 0.375000 0.750000
vt 0.383401 0.750000
vt 0.380906 0.741599
vt 0.375000 0.741599
vt 0.378879 0.738711
vt 0.375000 0.738711
vt 0.377341 0.735535
vt 0.375000 0.735535
vt 0.376258 0.732176
vt 0.375000 0.732176
vt 0.375567 0.728716
vt 0.375000 0.728716
vt 0.375185 0.725208
vt 0.375000 0.725208
vt 0.375000 0.721683
vt 0.625000 0.218154
vt 0.875000 0.531846
vt 0.593154 0.250000
vt 0.624973 0.221683
vt 0.875000 0.528317
vt 0.624815 0.225208
vt 0.875000 0.524792
vt 0.624433 0.228716
vt 0.875000 0.521284
vt 0.623741 0.232176
vt 0.875000 0.517824
vt 0.622659 0.235535
vt 0.875000 0.514465
vt 0.621121 0.238711
vt 0.875000 0.511289
vt 0.619094 0.241599
vt 0.875000 0.508401
vt 0.625000 0.250000
vt 0.616599 0.244094
vt 0.616599 0.250000
vt 0.613710 0.246121
vt 0.613711 0.250000
vt 0.610535 0.247659
vt 0.610535 0.250000
vt 0.607176 0.248741
vt 0.607176 0.250000
vt 0.603716 0.249433
vt 0.603716 0.250000
vt 0.600208 0.249815
vt 0.600208 0.250000
vt 0.596683 0.250000
vt 0.406846 0.250000
vt 0.375000 0.218154
vt 0.125000 0.531846
vt 0.403317 0.250000
vt 0.399792 0.249815
vt 0.399792 0.250000
vt 0.396284 0.249433
vt 0.396284 0.250000
vt 0.392824 0.248741
vt 0.392824 0.250000
vt 0.389465 0.247659
vt 0.389465 0.250000
vt 0.386289 0.246121
vt 0.386289 0.250000
vt 0.383401 0.244094
vt 0.125000 0.500000
vt 0.383401 0.250000
vt 0.380906 0.241599
vt 0.125000 0.508401
vt 0.378879 0.238711
vt 0.125000 0.511289
vt 0.377341 0.235535
vt 0.125000 0.514465
vt 0.376258 0.232176
vt 0.125000 0.517824
vt 0.375567 0.228716
vt 0.125000 0.521284
vt 0.375185 0.225208
vt 0.125000 0.524792
vt 0.375027 0.221683
vt 0.125000 0.528317
vt 0.593154 0.000000
vt 0.593154 1.000000
vt 0.625000 0.031846
vt 0.875000 0.718154
vt 0.596683 0.000027
vt 0.596683 1.000000
vt 0.600208 0.000185
vt 0.600208 1.000000
vt 0.603716 0.000567
vt 0.603716 1.000000
vt 0.607176 0.001259
vt 0.607176 1.000000
vt 0.610535 0.002341
vt 0.610535 1.000000
vt 0.613711 0.003879
vt 0.613711 1.000000
vt 0.616599 0.005906
vt 0.616599 1.000000
vt 0.619094 0.008401
vt 0.875000 0.741599
vt 0.625000 1.000000
vt 0.621121 0.011289
vt 0.875000 0.738711
vt 0.622659 0.014465
vt 0.875000 0.735535
vt 0.623741 0.017824
vt 0.875000 0.732176
vt 0.624433 0.021284
vt 0.875000 0.728716
vt 0.624815 0.024792
vt 0.875000 0.725208
vt 0.624973 0.028317
vt 0.875000 0.721683
vt 0.375000 0.031846
vt 0.125000 0.718154
vt 0.406846 0.000000
vt 0.406846 1.000000
vt 0.375027 0.028317
vt 0.125000 0.721683
vt 0.375185 0.024792
vt 0.125000 0.725208
vt 0.375567 0.021284
vt 0.125000 0.728716
vt 0.376258 0.017824
vt 0.125000 0.732176
vt 0.377341 0.014465
vt 0.125000 0.735535
vt 0.378879 0.011289
vt 0.125000 0.738711
vt 0.380906 0.008401
vt 0.125000 0.741599
vt 0.383401 0.005906
vt 0.125000 0.750000
vt 0.383401 1.000000
vt 0.386290 0.003879
vt 0.386289 1.000000
vt 0.389465 0.002341
vt 0.389465 1.000000
vt 0.392824 0.001259
vt 0.392824 1.000000
vt 0.396284 0.000567
vt 0.396284 1.000000
vt 0.399792 0.000185
vt 0.399792 1.000000
vt 0.403317 0.000027
vt 0.403317 1.000000
s 0
usemtl Material
f 82/150/1 17/30/1 50/89/1 113/213/1
f 113/212/2 115/216/2 116/218/2 117/220/2 118/222/2 119/224/2 120/226/2 121/228/2 122/230/2 123/233/2 124/235/2 125/237/2 126/239/2 127/241/2 128/243/2 114/214/2 97/179/2 99/183/2 100/185/2 101/187/2 102/189/2 103/191/2 104/193/2 105/195/2 106/197/2 107/200/2 108/202/2 109/204/2 110/206/2 111/208/2 112/210/2 98/181/2 65/117/2 67/120/2 68/122/2 69/124/2 70/126/2 71/128/2 72/130/2 73/132/2 74/135/2 75/137/2 76/139/2 77/141/2 78/143/2 79/145/2 80/147/2 66/119/2 81/148/2 83/151/2 84/152/2 85/154/2 86/156/2 87/158/2 88/160/2 89/162/2 90/165/2 91/167/2 92/169/2 93/171/2 94/173/2 95/175/2 96/177/2 82/149/2
f 49/88/3 34/60/3 97/180/3 114/215/3
f 2/2/4 65/118/4 98/182/4 33/59/4
f 17/30/5 19/32/5 20/33/5 21/35/5 22/37/5 23/39/5 24/41/5 25/43/5 26/45/5 27/48/5 28/50/5 29/52/5 30/54/5 31/56/5 32/58/5 18/31/5 1/1/5 3/3/5 4/4/5 5/6/5 6/8/5 7/10/5 8/12/5 9/14/5 10/16/5 11/19/5 12/21/5 13/23/5 14/25/5 15/27/5 16/29/5 2/2/5 33/59/5 35/61/5 36/62/5 37/64/5 38/66/5 39/68/5 40/70/5 41/72/5 42/75/5 43/77/5 44/79/5 45/81/5 46/83/5 47/85/5 48/87/5 34/60/5 49/88/5 51/90/5 52/91/5 53/93/5 54/95/5 55/97/5 56/99/5 57/101/5 58/104/5 59/106/5 60/108/5 61/110/5 62/112/5 63/114/5 64/116/5 50/89/5
f 17/30/6 82/150/6 96/178/6 19/32/6
f 19/32/7 96/178/7 95/176/7 20/34/7
f 20/34/8 95/176/8 94/174/8 21/36/8
f 21/36/9 94/174/9 93/172/9 22/38/9
f 22/38/10 93/172/10 92/170/10 23/40/10
f 23/40/11 92/170/11 91/168/11 24/42/11
f 24/42/12 91/168/12 90/166/12 25/44/12
f 25/44/13 90/166/13 89/163/13 26/46/13
f 26/47/14 89/164/14 88/161/14 27/49/14
f 27/49/15 88/161/15 87/159/15 28/51/15
f 28/51/16 87/159/16 86/157/16 29/53/16
f 29/53/17 86/157/17 85/155/17 30/55/17
f 30/55/18 85/155/18 84/153/18 31/57/18
f 31/57/19 84/153/19 83/151/19 32/58/19
f 32/58/20 83/151/20 81/148/20 18/31/20
f 33/59/21 98/182/21 112/211/21 35/61/21
f 35/61/22 112/211/22 111/209/22 36/63/22
f 36/63/23 111/209/23 110/207/23 37/65/23
f 37/65/24 110/207/24 109/205/24 38/67/24
f 38/67/25 109/205/25 108/203/25 39/69/25
f 39/69/26 108/203/26 107/201/26 40/71/26
f 40/71/27 107/201/27 106/198/27 41/73/27
f 41/74/28 106/199/28 105/196/28 42/76/28
f 42/76/29 105/196/29 104/194/29 43/78/29
f 43/78/30 104/194/30 103/192/30 44/80/30
f 44/80/31 103/192/31 102/190/31 45/82/31
f 45/82/32 102/190/32 101/188/32 46/84/32
f 46/84/33 101/188/33 100/186/33 47/86/33
f 47/86/34 100/186/34 99/184/34 48/87/34
f 48/87/35 99/184/35 97/180/35 34/60/35
f 113/213/36 50/89/36 64/116/36 115/217/36
f 115/217/37 64/116/37 63/115/37 116/219/37
f 116/219/38 63/115/38 62/113/38 117/221/38
f 117/221/39 62/113/39 61/111/39 118/223/39
f 118/223/40 61/111/40 60/109/40 119/225/40
f 119/225/41 60/109/41 59/107/41 120/227/41
f 120/227/42 59/107/42 58/105/42 121/229/42
f 121/229/43 58/105/43 57/102/43 122/231/43
f 122/232/44 57/103/44 56/100/44 123/234/44
f 123/234/45 56/100/45 55/98/45 124/236/45
f 124/236/46 55/98/46 54/96/46 125/238/46
f 125/238/47 54/96/47 53/94/47 126/240/47
f 126/240/48 53/94/48 52/92/48 127/242/48
f 127/242/49 52/92/49 51/90/49 128/244/49
f 128/244/50 51/90/50 49/88/50 114/215/50
f 65/118/51 2/2/51 16/29/51 67/121/51
f 67/121/52 16/29/52 15/28/52 68/123/52
f 68/123/53 15/28/53 14/26/53 69/125/53
f 69/125/54 14/26/54 13/24/54 70/127/54
f 70/127/55 13/24/55 12/22/55 71/129/55
f 71/129/56 12/22/56 11/20/56 72/131/56
f 72/131/57 11/20/57 10/17/57 73/133/57
f 73/134/58 10/18/58 9/15/58 74/136/58
f 74/136/59 9/15/59 8/13/59 75/138/59
f 75/138/60 8/13/60 7/11/60 76/140/60
f 76/140/61 7/11/61 6/9/61 77/142/61
f 77/142/62 6/9/62 5/7/62 78/144/62
f 78/144/63 5/7/63 4/5/63 79/146/63
f 79/146/64 4/5/64 3/3/64 80/147/64
f 80/147/65 3/3/65 1/1/65 66/119/65
f 81/148/66 66/119/66 1/1/66 18/31/66
